<svg xmlns="http://www.w3.org/2000/svg" width="400" height="400" viewBox="0 0 400 400"><rect width="100%" height="100%" fill="#f5f0eb"/><circle cx="173.0" cy="299.1" r="3.3" fill="#334"/><circle cx="108.1" cy="173.0" r="3.3" fill="#334"/><circle cx="234.2" cy="108.1" r="3.3" fill="#334"/><circle cx="299.1" cy="234.2" r="3.3" fill="#334"/><circle cx="183.8" cy="209.0" r="3.3" fill="#334"/><circle cx="191.0" cy="201.8" r="3.3" fill="#334"/><circle cx="223.4" cy="198.2" r="3.3" fill="#334"/><circle cx="209.0" cy="205.4" r="3.3" fill="#334"/><circle cx="216.2" cy="223.4" r="3.3" fill="#334"/><circle cx="198.2" cy="180.2" r="3.3" fill="#334"/><circle cx="205.4" cy="187.4" r="3.3" fill="#334"/><circle cx="223.4" cy="187.4" r="3.3" fill="#334"/><circle cx="198.2" cy="219.8" r="3.3" fill="#334"/><circle cx="180.2" cy="191.0" r="3.3" fill="#334"/><circle cx="212.6" cy="180.2" r="3.3" fill="#334"/><circle cx="223.4" cy="209.0" r="3.3" fill="#334"/><circle cx="176.6" cy="223.4" r="3.3" fill="#334"/><circle cx="183.8" cy="180.2" r="3.3" fill="#334"/><circle cx="191.0" cy="169.4" r="3.3" fill="#334"/><circle cx="234.2" cy="194.6" r="3.3" fill="#334"/><circle cx="209.0" cy="237.8" r="3.3" fill="#334"/><circle cx="165.8" cy="212.6" r="3.3" fill="#334"/><circle cx="230.6" cy="173.0" r="3.3" fill="#334"/><circle cx="227.0" cy="230.6" r="3.3" fill="#334"/><circle cx="173.0" cy="234.2" r="3.3" fill="#334"/><circle cx="169.4" cy="191.0" r="3.3" fill="#334"/><circle cx="212.6" cy="169.4" r="3.3" fill="#334"/><circle cx="241.4" cy="216.2" r="3.3" fill="#334"/><circle cx="209.0" cy="248.6" r="3.3" fill="#334"/><circle cx="165.8" cy="169.4" r="3.3" fill="#334"/><circle cx="219.8" cy="158.6" r="3.3" fill="#334"/><circle cx="241.4" cy="234.2" r="3.3" fill="#334"/><circle cx="169.4" cy="245.0" r="3.3" fill="#334"/><circle cx="155.0" cy="183.8" r="3.3" fill="#334"/><circle cx="201.8" cy="151.4" r="3.3" fill="#334"/><circle cx="255.9" cy="198.2" r="3.3" fill="#334"/><circle cx="201.8" cy="263.1" r="3.3" fill="#334"/><circle cx="144.1" cy="201.8" r="3.3" fill="#334"/><circle cx="219.8" cy="147.7" r="3.3" fill="#334"/><circle cx="255.9" cy="216.2" r="3.3" fill="#334"/><circle cx="187.4" cy="263.1" r="3.3" fill="#334"/><circle cx="147.7" cy="162.2" r="3.3" fill="#334"/><circle cx="205.4" cy="136.9" r="3.3" fill="#334"/><circle cx="266.7" cy="201.8" r="3.3" fill="#334"/><circle cx="165.8" cy="263.1" r="3.3" fill="#334"/><circle cx="129.7" cy="198.2" r="3.3" fill="#334"/><circle cx="245.0" cy="144.1" r="3.3" fill="#334"/><circle cx="263.1" cy="241.4" r="3.3" fill="#334"/><circle cx="180.2" cy="273.9" r="3.3" fill="#334"/><circle cx="136.9" cy="158.6" r="3.3" fill="#334"/><circle cx="227.0" cy="133.3" r="3.3" fill="#334"/><circle cx="273.9" cy="227.0" r="3.3" fill="#334"/><circle cx="158.6" cy="273.9" r="3.3" fill="#334"/><circle cx="126.1" cy="180.2" r="3.3" fill="#334"/><circle cx="245.0" cy="133.3" r="3.3" fill="#334"/><circle cx="281.1" cy="209.0" r="3.3" fill="#334"/><circle cx="194.6" cy="291.9" r="3.3" fill="#334"/><circle cx="115.3" cy="194.6" r="3.3" fill="#334"/><circle cx="212.6" cy="115.3" r="3.3" fill="#334"/><circle cx="284.7" cy="230.6" r="3.3" fill="#334"/><circle cx="176.6" cy="288.3" r="3.3" fill="#334"/><circle cx="122.5" cy="158.6" r="3.3" fill="#334"/><circle cx="248.6" cy="118.9" r="3.3" fill="#334"/><circle cx="299.1" cy="212.6" r="3.3" fill="#334"/><circle cx="191.0" cy="302.7" r="3.3" fill="#334"/><circle cx="104.5" cy="183.8" r="3.3" fill="#334"/><circle cx="216.2" cy="104.5" r="3.3" fill="#334"/><circle cx="288.3" cy="248.6" r="3.3" fill="#334"/><circle cx="151.4" cy="295.5" r="3.3" fill="#334"/><circle cx="111.7" cy="158.6" r="3.3" fill="#334"/><circle cx="252.3" cy="108.1" r="3.3" fill="#334"/><circle cx="299.1" cy="252.3" r="3.3" fill="#334"/><circle cx="187.4" cy="313.5" r="3.3" fill="#334"/><circle cx="90.1" cy="183.8" r="3.3" fill="#334"/><circle cx="234.2" cy="93.7" r="3.3" fill="#334"/><circle cx="309.9" cy="216.2" r="3.3" fill="#334"/><circle cx="165.8" cy="313.5" r="3.3" fill="#334"/><circle cx="90.1" cy="162.2" r="3.3" fill="#334"/><circle cx="223.4" cy="86.5" r="3.3" fill="#334"/><circle cx="320.7" cy="223.4" r="3.3" fill="#334"/><circle cx="147.7" cy="313.5" r="3.3" fill="#334"/><circle cx="93.7" cy="147.7" r="3.3" fill="#334"/><circle cx="259.5" cy="93.7" r="3.3" fill="#334"/><circle cx="320.7" cy="241.4" r="3.3" fill="#334"/><circle cx="180.2" cy="324.3" r="3.3" fill="#334"/><circle cx="79.3" cy="180.2" r="3.3" fill="#334"/><circle cx="245.0" cy="82.9" r="3.3" fill="#334"/><circle cx="320.7" cy="259.5" r="3.3" fill="#334"/><circle cx="162.2" cy="327.9" r="3.3" fill="#334"/><circle cx="79.3" cy="144.1" r="3.3" fill="#334"/><circle cx="263.1" cy="79.3" r="3.3" fill="#334"/><circle cx="331.5" cy="245.0" r="3.3" fill="#334"/><circle cx="140.5" cy="331.5" r="3.3" fill="#334"/><circle cx="64.9" cy="176.6" r="3.3" fill="#334"/><circle cx="230.6" cy="61.3" r="3.3" fill="#334"/><circle cx="331.5" cy="263.1" r="3.3" fill="#334"/><circle cx="169.4" cy="349.5" r="3.3" fill="#334"/><circle cx="64.9" cy="158.6" r="3.3" fill="#334"/><circle cx="245.0" cy="64.9" r="3.3" fill="#334"/><circle cx="342.3" cy="248.6" r="3.3" fill="#334"/><circle cx="155.0" cy="342.3" r="3.3" fill="#334"/><circle cx="68.5" cy="140.5" r="3.3" fill="#334"/><circle cx="230.6" cy="50.5" r="3.3" fill="#334"/><circle cx="342.3" cy="263.1" r="3.3" fill="#334"/><circle cx="173.0" cy="360.4" r="3.3" fill="#334"/><circle cx="54.1" cy="155.0" r="3.3" fill="#334"/><circle cx="255.9" cy="54.1" r="3.3" fill="#334"/><circle cx="356.8" cy="234.2" r="3.3" fill="#334"/><circle cx="133.3" cy="353.2" r="3.3" fill="#334"/><circle cx="43.2" cy="169.4" r="3.3" fill="#334"/><circle cx="270.3" cy="54.1" r="3.3" fill="#334"/><circle cx="356.8" cy="248.6" r="3.3" fill="#334"/><circle cx="155.0" cy="364.0" r="3.3" fill="#334"/><circle cx="50.5" cy="136.9" r="3.3" fill="#334"/><circle cx="255.9" cy="43.2" r="3.3" fill="#334"/><circle cx="367.6" cy="255.9" r="3.3" fill="#334"/><circle cx="129.7" cy="364.0" r="3.3" fill="#334"/><circle cx="32.4" cy="165.8" r="3.3" fill="#334"/><circle cx="241.4" cy="28.8" r="3.3" fill="#334"/><circle cx="371.2" cy="237.8" r="3.3" fill="#334"/><circle cx="144.1" cy="371.2" r="3.3" fill="#334"/><circle cx="28.8" cy="147.7" r="3.3" fill="#334"/><circle cx="277.5" cy="39.6" r="3.3" fill="#334"/><circle cx="367.6" cy="273.9" r="3.3" fill="#334"/><circle cx="144.1" cy="382.0" r="3.3" fill="#334"/><circle cx="36.0" cy="126.1" r="3.3" fill="#334"/><circle cx="277.5" cy="28.8" r="3.3" fill="#334"/><circle cx="382.0" cy="263.1" r="3.3" fill="#334"/><circle cx="158.6" cy="389.2" r="3.3" fill="#334"/><circle cx="21.6" cy="126.1" r="3.3" fill="#334"/><circle cx="248.6" cy="18.0" r="3.3" fill="#334"/><circle cx="382.0" cy="281.1" r="3.3" fill="#334"/><circle cx="126.1" cy="382.0" r="3.3" fill="#334"/><circle cx="14.4" cy="144.1" r="3.3" fill="#334"/><circle cx="245.0" cy="7.2" r="3.3" fill="#334"/></svg>