<svg xmlns="http://www.w3.org/2000/svg" width="400" height="400" viewBox="0 0 400 400"><rect width="100%" height="100%" fill="#f5f0eb"/><circle cx="136.9" cy="288.3" r="3.3" fill="#334"/><circle cx="97.3" cy="97.3" r="3.3" fill="#334"/><circle cx="281.1" cy="158.6" r="3.3" fill="#334"/><circle cx="151.4" cy="180.2" r="3.3" fill="#334"/><circle cx="165.8" cy="173.0" r="3.3" fill="#334"/><circle cx="187.4" cy="198.2" r="3.3" fill="#334"/><circle cx="165.8" cy="187.4" r="3.3" fill="#334"/><circle cx="180.2" cy="155.0" r="3.3" fill="#334"/><circle cx="183.8" cy="173.0" r="3.3" fill="#334"/><circle cx="144.1" cy="191.0" r="3.3" fill="#334"/><circle cx="162.2" cy="158.6" r="3.3" fill="#334"/><circle cx="216.2" cy="169.4" r="3.3" fill="#334"/><circle cx="165.8" cy="201.8" r="3.3" fill="#334"/><circle cx="173.0" cy="147.7" r="3.3" fill="#334"/><circle cx="198.2" cy="198.2" r="3.3" fill="#334"/><circle cx="180.2" cy="212.6" r="3.3" fill="#334"/><circle cx="136.9" cy="173.0" r="3.3" fill="#334"/><circle cx="194.6" cy="151.4" r="3.3" fill="#334"/><circle cx="136.9" cy="201.8" r="3.3" fill="#334"/><circle cx="165.8" cy="136.9" r="3.3" fill="#334"/><circle cx="201.8" cy="173.0" r="3.3" fill="#334"/><circle cx="158.6" cy="216.2" r="3.3" fill="#334"/><circle cx="147.7" cy="151.4" r="3.3" fill="#334"/><circle cx="212.6" cy="194.6" r="3.3" fill="#334"/><circle cx="180.2" cy="223.4" r="3.3" fill="#334"/><circle cx="126.1" cy="158.6" r="3.3" fill="#334"/><circle cx="209.0" cy="147.7" r="3.3" fill="#334"/><circle cx="136.9" cy="219.8" r="3.3" fill="#334"/><circle cx="140.5" cy="144.1" r="3.3" fill="#334"/><circle cx="223.4" cy="194.6" r="3.3" fill="#334"/><circle cx="180.2" cy="237.8" r="3.3" fill="#334"/><circle cx="155.0" cy="122.5" r="3.3" fill="#334"/><circle cx="219.8" cy="144.1" r="3.3" fill="#334"/><circle cx="151.4" cy="230.6" r="3.3" fill="#334"/><circle cx="118.9" cy="147.7" r="3.3" fill="#334"/><circle cx="227.0" cy="165.8" r="3.3" fill="#334"/><circle cx="129.7" cy="230.6" r="3.3" fill="#334"/><circle cx="129.7" cy="129.7" r="3.3" fill="#334"/><circle cx="237.8" cy="187.4" r="3.3" fill="#334"/><circle cx="173.0" cy="252.3" r="3.3" fill="#334"/><circle cx="144.1" cy="115.3" r="3.3" fill="#334"/><circle cx="230.6" cy="144.1" r="3.3" fill="#334"/><circle cx="144.1" cy="245.0" r="3.3" fill="#334"/><circle cx="118.9" cy="126.1" r="3.3" fill="#334"/><circle cx="241.4" cy="169.4" r="3.3" fill="#334"/><circle cx="126.1" cy="245.0" r="3.3" fill="#334"/><circle cx="136.9" cy="104.5" r="3.3" fill="#334"/><circle cx="245.0" cy="144.1" r="3.3" fill="#334"/><circle cx="169.4" cy="263.1" r="3.3" fill="#334"/><circle cx="97.3" cy="129.7" r="3.3" fill="#334"/><circle cx="252.3" cy="183.8" r="3.3" fill="#334"/><circle cx="144.1" cy="263.1" r="3.3" fill="#334"/><circle cx="115.3" cy="111.7" r="3.3" fill="#334"/><circle cx="259.5" cy="165.8" r="3.3" fill="#334"/><circle cx="165.8" cy="273.9" r="3.3" fill="#334"/><circle cx="126.1" cy="93.7" r="3.3" fill="#334"/><circle cx="255.9" cy="136.9" r="3.3" fill="#334"/><circle cx="118.9" cy="263.1" r="3.3" fill="#334"/><circle cx="108.1" cy="104.5" r="3.3" fill="#334"/><circle cx="273.9" cy="180.2" r="3.3" fill="#334"/><circle cx="136.9" cy="273.9" r="3.3" fill="#334"/><circle cx="86.5" cy="115.3" r="3.3" fill="#334"/><circle cx="266.7" cy="136.9" r="3.3" fill="#334"/><circle cx="158.6" cy="288.3" r="3.3" fill="#334"/><circle cx="115.3" cy="82.9" r="3.3" fill="#334"/><circle cx="284.7" cy="180.2" r="3.3" fill="#334"/><circle cx="115.3" cy="277.5" r="3.3" fill="#334"/><circle cx="79.3" cy="108.1" r="3.3" fill="#334"/><circle cx="281.1" cy="136.9" r="3.3" fill="#334"/><circle cx="158.6" cy="299.1" r="3.3" fill="#334"/><circle cx="108.1" cy="75.7" r="3.3" fill="#334"/><circle cx="306.3" cy="129.7" r="3.3" fill="#334"/><circle cx="129.7" cy="295.5" r="3.3" fill="#334"/><circle cx="90.1" cy="90.1" r="3.3" fill="#334"/><circle cx="295.5" cy="176.6" r="3.3" fill="#334"/><circle cx="108.1" cy="295.5" r="3.3" fill="#334"/><circle cx="68.5" cy="100.9" r="3.3" fill="#334"/><circle cx="295.5" cy="158.6" r="3.3" fill="#334"/><circle cx="151.4" cy="313.5" r="3.3" fill="#334"/><circle cx="104.5" cy="64.9" r="3.3" fill="#334"/><circle cx="295.5" cy="129.7" r="3.3" fill="#334"/><circle cx="108.1" cy="306.3" r="3.3" fill="#334"/><circle cx="82.9" cy="75.7" r="3.3" fill="#334"/><circle cx="306.3" cy="147.7" r="3.3" fill="#334"/><circle cx="122.5" cy="313.5" r="3.3" fill="#334"/><circle cx="93.7" cy="57.7" r="3.3" fill="#334"/><circle cx="313.5" cy="169.4" r="3.3" fill="#334"/><circle cx="151.4" cy="324.3" r="3.3" fill="#334"/><circle cx="57.7" cy="82.9" r="3.3" fill="#334"/><circle cx="317.1" cy="151.4" r="3.3" fill="#334"/><circle cx="104.5" cy="317.1" r="3.3" fill="#334"/><circle cx="72.1" cy="64.9" r="3.3" fill="#334"/><circle cx="324.3" cy="165.8" r="3.3" fill="#334"/><circle cx="144.1" cy="335.1" r="3.3" fill="#334"/><circle cx="82.9" cy="46.8" r="3.3" fill="#334"/><circle cx="324.3" cy="144.1" r="3.3" fill="#334"/><circle cx="126.1" cy="335.1" r="3.3" fill="#334"/><circle cx="46.8" cy="75.7" r="3.3" fill="#334"/><circle cx="320.7" cy="126.1" r="3.3" fill="#334"/><circle cx="97.3" cy="331.5" r="3.3" fill="#334"/><circle cx="61.3" cy="57.7" r="3.3" fill="#334"/><circle cx="335.1" cy="169.4" r="3.3" fill="#334"/><circle cx="140.5" cy="349.5" r="3.3" fill="#334"/><circle cx="75.7" cy="32.4" r="3.3" fill="#334"/><circle cx="338.7" cy="144.1" r="3.3" fill="#334"/><circle cx="115.3" cy="342.3" r="3.3" fill="#334"/><circle cx="54.1" cy="46.8" r="3.3" fill="#334"/><circle cx="349.5" cy="165.8" r="3.3" fill="#334"/><circle cx="97.3" cy="345.9" r="3.3" fill="#334"/><circle cx="32.4" cy="61.3" r="3.3" fill="#334"/><circle cx="342.3" cy="122.5" r="3.3" fill="#334"/><circle cx="108.1" cy="356.8" r="3.3" fill="#334"/><circle cx="64.9" cy="25.2" r="3.3" fill="#334"/><circle cx="360.4" cy="165.8" r="3.3" fill="#334"/><circle cx="136.9" cy="364.0" r="3.3" fill="#334"/><circle cx="46.8" cy="32.4" r="3.3" fill="#334"/><circle cx="356.8" cy="115.3" r="3.3" fill="#334"/><circle cx="90.1" cy="356.8" r="3.3" fill="#334"/><circle cx="25.2" cy="50.5" r="3.3" fill="#334"/><circle cx="364.0" cy="136.9" r="3.3" fill="#334"/><circle cx="108.1" cy="371.2" r="3.3" fill="#334"/><circle cx="57.7" cy="14.4" r="3.3" fill="#334"/><circle cx="371.2" cy="158.6" r="3.3" fill="#334"/><circle cx="86.5" cy="371.2" r="3.3" fill="#334"/><circle cx="18.0" cy="39.6" r="3.3" fill="#334"/><circle cx="371.2" cy="115.3" r="3.3" fill="#334"/><circle cx="126.1" cy="389.2" r="3.3" fill="#334"/><circle cx="46.8" cy="7.2" r="3.3" fill="#334"/><circle cx="385.6" cy="158.6" r="3.3" fill="#334"/><circle cx="108.1" cy="385.6" r="3.3" fill="#334"/><circle cx="25.2" cy="18.0" r="3.3" fill="#334"/><circle cx="378.4" cy="133.3" r="3.3" fill="#334"/><circle cx="86.5" cy="382.0" r="3.3" fill="#334"/><circle cx="7.2" cy="28.8" r="3.3" fill="#334"/><circle cx="382.0" cy="115.3" r="3.3" fill="#334"/></svg>