<svg xmlns="http://www.w3.org/2000/svg" width="400" height="400" viewBox="0 0 400 400"><rect width="100%" height="100%" fill="#f5f0eb"/><circle cx="169.4" cy="291.9" r="2.2" fill="#334"/><circle cx="230.6" cy="115.3" r="2.2" fill="#334"/><circle cx="216.2" cy="230.6" r="2.2" fill="#334"/><circle cx="273.9" cy="198.2" r="2.2" fill="#334"/><circle cx="158.6" cy="374.8" r="2.2" fill="#334"/><circle cx="291.9" cy="46.8" r="2.2" fill="#334"/><circle cx="169.4" cy="371.2" r="2.2" fill="#334"/><circle cx="227.0" cy="7.2" r="2.2" fill="#334"/><circle cx="191.0" cy="353.2" r="2.2" fill="#334"/><circle cx="198.2" cy="39.6" r="2.2" fill="#334"/><circle cx="263.1" cy="295.5" r="2.2" fill="#334"/><circle cx="270.3" cy="46.8" r="2.2" fill="#334"/><circle cx="147.7" cy="277.5" r="2.2" fill="#334"/><circle cx="227.0" cy="136.9" r="2.2" fill="#334"/><circle cx="180.2" cy="317.1" r="2.2" fill="#334"/><circle cx="129.7" cy="97.3" r="2.2" fill="#334"/><circle cx="180.2" cy="306.3" r="2.2" fill="#334"/><circle cx="126.1" cy="122.5" r="2.2" fill="#334"/><circle cx="126.1" cy="385.6" r="2.2" fill="#334"/><circle cx="306.3" cy="133.3" r="2.2" fill="#334"/><circle cx="173.0" cy="382.0" r="2.2" fill="#334"/><circle cx="255.9" cy="205.4" r="2.2" fill="#334"/><circle cx="165.8" cy="230.6" r="2.2" fill="#334"/><circle cx="122.5" cy="108.1" r="2.2" fill="#334"/><circle cx="158.6" cy="342.3" r="2.2" fill="#334"/><circle cx="284.7" cy="144.1" r="2.2" fill="#334"/><circle cx="133.3" cy="209.0" r="2.2" fill="#334"/><circle cx="317.1" cy="72.1" r="2.2" fill="#334"/><circle cx="201.8" cy="281.1" r="2.2" fill="#334"/><circle cx="299.1" cy="90.1" r="2.2" fill="#334"/><circle cx="205.4" cy="320.7" r="2.2" fill="#334"/><circle cx="219.8" cy="126.1" r="2.2" fill="#334"/><circle cx="108.1" cy="241.4" r="2.2" fill="#334"/><circle cx="327.9" cy="165.8" r="2.2" fill="#334"/><circle cx="259.5" cy="252.3" r="2.2" fill="#334"/><circle cx="212.6" cy="54.1" r="2.2" fill="#334"/><circle cx="122.5" cy="288.3" r="2.2" fill="#334"/><circle cx="306.3" cy="187.4" r="2.2" fill="#334"/><circle cx="64.9" cy="248.6" r="2.2" fill="#334"/><circle cx="129.7" cy="158.6" r="2.2" fill="#334"/><circle cx="126.1" cy="367.6" r="2.2" fill="#334"/><circle cx="191.0" cy="194.6" r="2.2" fill="#334"/><circle cx="144.1" cy="385.6" r="2.2" fill="#334"/><circle cx="327.9" cy="111.7" r="2.2" fill="#334"/><circle cx="72.1" cy="338.7" r="2.2" fill="#334"/><circle cx="205.4" cy="194.6" r="2.2" fill="#334"/><circle cx="158.6" cy="255.9" r="2.2" fill="#334"/><circle cx="245.0" cy="50.5" r="2.2" fill="#334"/><circle cx="263.1" cy="353.2" r="2.2" fill="#334"/><circle cx="270.3" cy="108.1" r="2.2" fill="#334"/><circle cx="158.6" cy="245.0" r="2.2" fill="#334"/><circle cx="245.0" cy="209.0" r="2.2" fill="#334"/><circle cx="209.0" cy="356.8" r="2.2" fill="#334"/><circle cx="180.2" cy="194.6" r="2.2" fill="#334"/><circle cx="136.9" cy="255.9" r="2.2" fill="#334"/><circle cx="180.2" cy="212.6" r="2.2" fill="#334"/><circle cx="90.1" cy="356.8" r="2.2" fill="#334"/><circle cx="259.5" cy="82.9" r="2.2" fill="#334"/><circle cx="241.4" cy="295.5" r="2.2" fill="#334"/><circle cx="165.8" cy="39.6" r="2.2" fill="#334"/><circle cx="263.1" cy="234.2" r="2.2" fill="#334"/><circle cx="187.4" cy="82.9" r="2.2" fill="#334"/><circle cx="205.4" cy="367.6" r="2.2" fill="#334"/><circle cx="223.4" cy="90.1" r="2.2" fill="#334"/><circle cx="140.5" cy="345.9" r="2.2" fill="#334"/><circle cx="288.3" cy="212.6" r="2.2" fill="#334"/><circle cx="126.1" cy="273.9" r="2.2" fill="#334"/><circle cx="180.2" cy="155.0" r="2.2" fill="#334"/><circle cx="104.5" cy="331.5" r="2.2" fill="#334"/><circle cx="155.0" cy="173.0" r="2.2" fill="#334"/><circle cx="223.4" cy="252.3" r="2.2" fill="#334"/><circle cx="162.2" cy="115.3" r="2.2" fill="#334"/><circle cx="82.9" cy="266.7" r="2.2" fill="#334"/><circle cx="234.2" cy="205.4" r="2.2" fill="#334"/><circle cx="151.4" cy="356.8" r="2.2" fill="#334"/><circle cx="198.2" cy="57.7" r="2.2" fill="#334"/><circle cx="198.2" cy="342.3" r="2.2" fill="#334"/><circle cx="194.6" cy="205.4" r="2.2" fill="#334"/><circle cx="155.0" cy="331.5" r="2.2" fill="#334"/><circle cx="209.0" cy="104.5" r="2.2" fill="#334"/><circle cx="118.9" cy="299.1" r="2.2" fill="#334"/><circle cx="212.6" cy="43.2" r="2.2" fill="#334"/><circle cx="64.9" cy="277.5" r="2.2" fill="#334"/><circle cx="313.5" cy="50.5" r="2.2" fill="#334"/><circle cx="205.4" cy="209.0" r="2.2" fill="#334"/><circle cx="191.0" cy="147.7" r="2.2" fill="#334"/><circle cx="255.9" cy="284.7" r="2.2" fill="#334"/><circle cx="281.1" cy="50.5" r="2.2" fill="#334"/><circle cx="165.8" cy="187.4" r="2.2" fill="#334"/><circle cx="255.9" cy="126.1" r="2.2" fill="#334"/><circle cx="216.2" cy="187.4" r="2.2" fill="#334"/><circle cx="277.5" cy="36.0" r="2.2" fill="#334"/><circle cx="82.9" cy="230.6" r="2.2" fill="#334"/><circle cx="165.8" cy="136.9" r="2.2" fill="#334"/><circle cx="126.1" cy="194.6" r="2.2" fill="#334"/><circle cx="291.9" cy="201.8" r="2.2" fill="#334"/><circle cx="151.4" cy="266.7" r="2.2" fill="#334"/><circle cx="324.3" cy="90.1" r="2.2" fill="#334"/><circle cx="64.9" cy="313.5" r="2.2" fill="#334"/><circle cx="288.3" cy="191.0" r="2.2" fill="#334"/><circle cx="209.0" cy="338.7" r="2.2" fill="#334"/><circle cx="162.2" cy="82.9" r="2.2" fill="#334"/><circle cx="205.4" cy="389.2" r="2.2" fill="#334"/><circle cx="136.9" cy="104.5" r="2.2" fill="#334"/><circle cx="93.7" cy="306.3" r="2.2" fill="#334"/><circle cx="158.6" cy="151.4" r="2.2" fill="#334"/><circle cx="111.7" cy="281.1" r="2.2" fill="#334"/><circle cx="176.6" cy="46.8" r="2.2" fill="#334"/><circle cx="219.8" cy="349.5" r="2.2" fill="#334"/><circle cx="295.5" cy="162.2" r="2.2" fill="#334"/><circle cx="270.3" cy="331.5" r="2.2" fill="#334"/><circle cx="237.8" cy="183.8" r="2.2" fill="#334"/><circle cx="82.9" cy="255.9" r="2.2" fill="#334"/><circle cx="176.6" cy="28.8" r="2.2" fill="#334"/><circle cx="72.1" cy="259.5" r="2.2" fill="#334"/><circle cx="273.9" cy="136.9" r="2.2" fill="#334"/><circle cx="205.4" cy="306.3" r="2.2" fill="#334"/><circle cx="144.1" cy="79.3" r="2.2" fill="#334"/><circle cx="284.7" cy="309.9" r="2.2" fill="#334"/><circle cx="191.0" cy="176.6" r="2.2" fill="#334"/><circle cx="201.8" cy="237.8" r="2.2" fill="#334"/><circle cx="338.7" cy="82.9" r="2.2" fill="#334"/><circle cx="270.3" cy="248.6" r="2.2" fill="#334"/><circle cx="230.6" cy="32.4" r="2.2" fill="#334"/><circle cx="284.7" cy="281.1" r="2.2" fill="#334"/><circle cx="187.4" cy="36.0" r="2.2" fill="#334"/><circle cx="79.3" cy="349.5" r="2.2" fill="#334"/><circle cx="165.8" cy="100.9" r="2.2" fill="#334"/><circle cx="93.7" cy="223.4" r="2.2" fill="#334"/><circle cx="191.0" cy="14.4" r="2.2" fill="#334"/><circle cx="57.7" cy="302.7" r="2.2" fill="#334"/><circle cx="191.0" cy="68.5" r="2.2" fill="#334"/><circle cx="209.0" cy="378.4" r="2.2" fill="#334"/><circle cx="147.7" cy="129.7" r="2.2" fill="#334"/><circle cx="140.5" cy="291.9" r="2.2" fill="#334"/></svg>