<svg xmlns="http://www.w3.org/2000/svg" width="400" height="400" viewBox="0 0 400 400"><rect width="100%" height="100%" fill="#f5f0eb"/><circle cx="79.3" cy="270.3" r="2.2" fill="#334"/><circle cx="335.1" cy="118.9" r="2.2" fill="#334"/><circle cx="209.0" cy="270.3" r="2.2" fill="#334"/><circle cx="237.8" cy="82.9" r="2.2" fill="#334"/><circle cx="28.8" cy="230.6" r="2.2" fill="#334"/><circle cx="291.9" cy="108.1" r="2.2" fill="#334"/><circle cx="219.8" cy="209.0" r="2.2" fill="#334"/><circle cx="169.4" cy="180.2" r="2.2" fill="#334"/><circle cx="234.2" cy="263.1" r="2.2" fill="#334"/><circle cx="378.4" cy="198.2" r="2.2" fill="#334"/><circle cx="205.4" cy="255.9" r="2.2" fill="#334"/><circle cx="158.6" cy="198.2" r="2.2" fill="#334"/><circle cx="93.7" cy="295.5" r="2.2" fill="#334"/><circle cx="151.4" cy="140.5" r="2.2" fill="#334"/><circle cx="14.4" cy="136.9" r="2.2" fill="#334"/><circle cx="162.2" cy="118.9" r="2.2" fill="#334"/><circle cx="43.2" cy="230.6" r="2.2" fill="#334"/><circle cx="385.6" cy="288.3" r="2.2" fill="#334"/><circle cx="136.9" cy="288.3" r="2.2" fill="#334"/><circle cx="147.7" cy="176.6" r="2.2" fill="#334"/><circle cx="212.6" cy="237.8" r="2.2" fill="#334"/><circle cx="209.0" cy="111.7" r="2.2" fill="#334"/><circle cx="100.9" cy="277.5" r="2.2" fill="#334"/><circle cx="349.5" cy="353.2" r="2.2" fill="#334"/><circle cx="158.6" cy="295.5" r="2.2" fill="#334"/><circle cx="302.7" cy="97.3" r="2.2" fill="#334"/><circle cx="36.0" cy="212.6" r="2.2" fill="#334"/><circle cx="183.8" cy="147.7" r="2.2" fill="#334"/><circle cx="18.0" cy="162.2" r="2.2" fill="#334"/><circle cx="277.5" cy="104.5" r="2.2" fill="#334"/><circle cx="21.6" cy="68.5" r="2.2" fill="#334"/><circle cx="349.5" cy="129.7" r="2.2" fill="#334"/><circle cx="227.0" cy="241.4" r="2.2" fill="#334"/><circle cx="176.6" cy="133.3" r="2.2" fill="#334"/><circle cx="173.0" cy="281.1" r="2.2" fill="#334"/><circle cx="187.4" cy="162.2" r="2.2" fill="#334"/><circle cx="21.6" cy="100.9" r="2.2" fill="#334"/><circle cx="317.1" cy="111.7" r="2.2" fill="#334"/><circle cx="234.2" cy="194.6" r="2.2" fill="#334"/><circle cx="169.4" cy="144.1" r="2.2" fill="#334"/><circle cx="43.2" cy="241.4" r="2.2" fill="#334"/><circle cx="389.2" cy="259.5" r="2.2" fill="#334"/><circle cx="245.0" cy="255.9" r="2.2" fill="#334"/><circle cx="219.8" cy="104.5" r="2.2" fill="#334"/><circle cx="248.6" cy="216.2" r="2.2" fill="#334"/><circle cx="291.9" cy="90.1" r="2.2" fill="#334"/><circle cx="18.0" cy="122.5" r="2.2" fill="#334"/><circle cx="335.1" cy="136.9" r="2.2" fill="#334"/><circle cx="25.2" cy="173.0" r="2.2" fill="#334"/><circle cx="371.2" cy="288.3" r="2.2" fill="#334"/><circle cx="7.2" cy="165.8" r="2.2" fill="#334"/><circle cx="191.0" cy="111.7" r="2.2" fill="#334"/><circle cx="32.4" cy="198.2" r="2.2" fill="#334"/><circle cx="212.6" cy="82.9" r="2.2" fill="#334"/><circle cx="111.7" cy="288.3" r="2.2" fill="#334"/><circle cx="194.6" cy="93.7" r="2.2" fill="#334"/><circle cx="248.6" cy="234.2" r="2.2" fill="#334"/><circle cx="360.4" cy="327.9" r="2.2" fill="#334"/><circle cx="10.8" cy="191.0" r="2.2" fill="#334"/><circle cx="367.6" cy="183.8" r="2.2" fill="#334"/><circle cx="54.1" cy="28.8" r="2.2" fill="#334"/><circle cx="245.0" cy="100.9" r="2.2" fill="#334"/><circle cx="28.8" cy="90.1" r="2.2" fill="#334"/><circle cx="259.5" cy="79.3" r="2.2" fill="#334"/><circle cx="245.0" cy="205.4" r="2.2" fill="#334"/><circle cx="183.8" cy="100.9" r="2.2" fill="#334"/><circle cx="219.8" cy="263.1" r="2.2" fill="#334"/><circle cx="374.8" cy="227.0" r="2.2" fill="#334"/><circle cx="216.2" cy="288.3" r="2.2" fill="#334"/><circle cx="259.5" cy="100.9" r="2.2" fill="#334"/><circle cx="25.2" cy="219.8" r="2.2" fill="#334"/><circle cx="187.4" cy="133.3" r="2.2" fill="#334"/><circle cx="61.3" cy="266.7" r="2.2" fill="#334"/><circle cx="360.4" cy="165.8" r="2.2" fill="#334"/><circle cx="61.3" cy="248.6" r="2.2" fill="#334"/><circle cx="338.7" cy="364.0" r="2.2" fill="#334"/><circle cx="79.3" cy="284.7" r="2.2" fill="#334"/><circle cx="378.4" cy="212.6" r="2.2" fill="#334"/><circle cx="14.4" cy="147.7" r="2.2" fill="#334"/><circle cx="374.8" cy="173.0" r="2.2" fill="#334"/><circle cx="187.4" cy="284.7" r="2.2" fill="#334"/><circle cx="374.8" cy="277.5" r="2.2" fill="#334"/><circle cx="201.8" cy="295.5" r="2.2" fill="#334"/><circle cx="389.2" cy="230.6" r="2.2" fill="#334"/><circle cx="180.2" cy="306.3" r="2.2" fill="#334"/><circle cx="367.6" cy="306.3" r="2.2" fill="#334"/><circle cx="43.2" cy="46.8" r="2.2" fill="#334"/><circle cx="374.8" cy="324.3" r="2.2" fill="#334"/><circle cx="209.0" cy="227.0" r="2.2" fill="#334"/><circle cx="331.5" cy="371.2" r="2.2" fill="#334"/><circle cx="36.0" cy="54.1" r="2.2" fill="#334"/><circle cx="378.4" cy="263.1" r="2.2" fill="#334"/><circle cx="147.7" cy="306.3" r="2.2" fill="#334"/><circle cx="270.3" cy="86.5" r="2.2" fill="#334"/><circle cx="126.1" cy="295.5" r="2.2" fill="#334"/><circle cx="360.4" cy="147.7" r="2.2" fill="#334"/><circle cx="10.8" cy="111.7" r="2.2" fill="#334"/><circle cx="173.0" cy="108.1" r="2.2" fill="#334"/><circle cx="169.4" cy="306.3" r="2.2" fill="#334"/><circle cx="302.7" cy="111.7" r="2.2" fill="#334"/><circle cx="115.3" cy="302.7" r="2.2" fill="#334"/><circle cx="209.0" cy="97.3" r="2.2" fill="#334"/><circle cx="234.2" cy="227.0" r="2.2" fill="#334"/><circle cx="180.2" cy="122.5" r="2.2" fill="#334"/><circle cx="18.0" cy="205.4" r="2.2" fill="#334"/><circle cx="378.4" cy="245.0" r="2.2" fill="#334"/><circle cx="227.0" cy="273.9" r="2.2" fill="#334"/><circle cx="169.4" cy="165.8" r="2.2" fill="#334"/><circle cx="194.6" cy="266.7" r="2.2" fill="#334"/><circle cx="151.4" cy="162.2" r="2.2" fill="#334"/><circle cx="46.8" cy="255.9" r="2.2" fill="#334"/><circle cx="324.3" cy="129.7" r="2.2" fill="#334"/><circle cx="133.3" cy="306.3" r="2.2" fill="#334"/><circle cx="230.6" cy="93.7" r="2.2" fill="#334"/><circle cx="158.6" cy="284.7" r="2.2" fill="#334"/><circle cx="252.3" cy="90.1" r="2.2" fill="#334"/><circle cx="28.8" cy="187.4" r="2.2" fill="#334"/><circle cx="382.0" cy="299.1" r="2.2" fill="#334"/><circle cx="14.4" cy="86.5" r="2.2" fill="#334"/><circle cx="389.2" cy="270.3" r="2.2" fill="#334"/><circle cx="90.1" cy="270.3" r="2.2" fill="#334"/><circle cx="349.5" cy="155.0" r="2.2" fill="#334"/><circle cx="72.1" cy="255.9" r="2.2" fill="#334"/><circle cx="155.0" cy="129.7" r="2.2" fill="#334"/><circle cx="68.5" cy="277.5" r="2.2" fill="#334"/><circle cx="313.5" cy="100.9" r="2.2" fill="#334"/><circle cx="32.4" cy="75.7" r="2.2" fill="#334"/><circle cx="389.2" cy="245.0" r="2.2" fill="#334"/><circle cx="64.9" cy="18.0" r="2.2" fill="#334"/><circle cx="165.8" cy="205.4" r="2.2" fill="#334"/><circle cx="10.8" cy="180.2" r="2.2" fill="#334"/><circle cx="162.2" cy="155.0" r="2.2" fill="#334"/><circle cx="201.8" cy="281.1" r="2.2" fill="#334"/><circle cx="353.2" cy="342.3" r="2.2" fill="#334"/><circle cx="230.6" cy="212.6" r="2.2" fill="#334"/><circle cx="183.8" cy="234.2" r="2.2" fill="#334"/><circle cx="194.6" cy="216.2" r="2.2" fill="#334"/><circle cx="198.2" cy="201.8" r="2.2" fill="#334"/><circle cx="180.2" cy="212.6" r="2.2" fill="#334"/><circle cx="173.0" cy="227.0" r="2.2" fill="#334"/><circle cx="187.4" cy="194.6" r="2.2" fill="#334"/></svg>